<?xml version="1.0" standalone="no"?>
<!DOCTYPE svg PUBLIC "-//W3C//DTD SVG 20010904//EN"
 "http://www.w3.org/TR/2001/REC-SVG-20010904/DTD/svg10.dtd">
<svg version="1.0" xmlns="http://www.w3.org/2000/svg"
 width="100.000000pt" height="100.000000pt" viewBox="0 0 500.000000 500.000000"
 preserveAspectRatio="xMidYMid meet">

<g transform="translate(0.000000,500.000000) scale(0.120000,-0.1200000)"
fill="#000000" stroke="none"> 
<path d="M1533 4145 c-75 -34 -107 -86 -111 -181 -4 -66 2 -93 67 -311 69
-233 181 -643 216 -795 16 -66 17 -93 9 -201 l-10 -124 -82 -127 c-45 -69 -82
-132 -82 -139 0 -7 59 -199 130 -426 72 -227 130 -415 130 -417 0 -2 284 -3
632 -2 l632 3 102 323 c88 282 102 334 108 420 18 261 114 755 270 1391 37
150 46 254 25 308 -57 150 -292 160 -392 16 -33 -47 -85 -218 -176 -573 l-68
-265 -4 86 c-3 72 -8 92 -31 126 -32 49 -95 82 -171 90 -46 5 -64 1 -113 -21
-39 -18 -60 -23 -62 -16 -9 26 -68 82 -106 102 -63 33 -161 31 -215 -5 -80
-53 -110 -136 -111 -311 0 -33 -2 -57 -5 -54 -3 2 -43 142 -89 309 -175 629
-185 659 -243 738 -30 39 -114 81 -163 80 -19 0 -58 -11 -87 -24z m134 -60
c43 -12 92 -84 122 -179 58 -181 311 -1099 311 -1128 0 -5 -51 -8 -114 -8
l-114 0 -28 -47 c-55 -96 -57 -97 -49 -13 6 68 2 93 -35 240 -57 227 -119 453
-201 729 -38 128 -69 250 -69 270 0 56 29 103 80 129 24 12 51 20 60 18 8 -3
25 -7 37 -11z m1805 -203 c52 -51 50 -97 -16 -371 -166 -686 -239 -1067 -253
-1306 -5 -90 -14 -130 -101 -408 l-96 -307 -574 2 -575 3 -118 375 c-66 206
-117 382 -115 391 2 9 67 114 146 233 l142 216 250 0 c271 0 277 -1 331 -58
34 -35 45 -94 27 -147 -7 -20 -39 -65 -71 -100 l-60 -63 -57 23 c-124 50 -309
57 -333 13 -20 -36 10 -54 96 -55 136 -3 247 -48 332 -135 61 -62 107 -154
124 -248 17 -93 23 -112 41 -123 71 -46 63 144 -13 301 -18 36 -54 87 -84 117
-44 44 -51 56 -40 65 11 9 18 7 34 -9 56 -56 162 -78 234 -47 45 18 93 69 123
128 15 30 43 131 69 251 94 436 212 905 280 1112 45 136 101 189 193 182 43
-3 59 -10 84 -35z m-1052 -540 c23 -12 43 -35 59 -66 l24 -48 -18 -229 -18
-229 -144 0 -143 0 0 43 c1 23 7 135 14 248 11 180 15 210 34 241 12 19 32 40
44 46 36 17 110 14 148 -6z m341 -73 c45 -15 76 -45 89 -84 14 -44 -32 -692
-54 -753 -33 -91 -81 -132 -156 -132 -44 0 -72 11 -106 42 l-22 20 39 56 c69
102 73 190 12 263 l-26 31 12 211 c7 117 15 226 17 243 8 44 42 82 89 99 50
17 63 18 106 4z"/>
<path d="M1712 1200 c-19 -18 -22 -32 -22 -95 l0 -75 26 12 c24 11 25 15 22
75 l-3 63 57 0 c65 0 88 7 88 26 0 11 -17 14 -73 14 -60 0 -77 -4 -95 -20z"/>
<path d="M1937 1213 c-4 -3 -7 -28 -7 -55 0 -42 3 -49 18 -46 22 4 32 108 9
108 -7 0 -17 -3 -20 -7z"/>
<path d="M2117 1213 c-4 -3 -7 -53 -7 -110 0 -94 2 -104 18 -101 15 3 17 18
20 111 2 85 0 107 -11 107 -8 0 -17 -3 -20 -7z"/>
<path d="M2177 1213 c-4 -3 -7 -12 -7 -20 0 -11 20 -13 97 -11 84 3 98 6 101
21 3 15 -6 17 -91 17 -51 0 -97 -3 -100 -7z"/>
<path d="M2427 1213 c-4 -3 -7 -12 -7 -20 0 -10 18 -13 70 -13 66 0 70 -1 76
-25 9 -34 -9 -53 -46 -47 -41 6 -80 -5 -80 -23 0 -11 13 -15 53 -15 58 0 77
-12 77 -48 0 -17 5 -23 18 -20 15 3 17 16 19 96 2 117 -3 122 -101 122 -40 0
-76 -3 -79 -7z"/>
<path d="M2667 1213 c-4 -3 -7 -12 -7 -20 0 -10 18 -13 70 -13 l70 0 0 -91 c0
-81 2 -90 18 -87 14 3 18 18 22 93 7 118 2 125 -95 125 -39 0 -75 -3 -78 -7z"/>
<path d="M2903 1213 c-7 -2 -13 -11 -13 -18 0 -11 19 -15 73 -17 l72 -3 3 -87
c3 -86 6 -94 34 -83 16 6 13 182 -4 202 -10 13 -138 17 -165 6z"/>
<path d="M3122 1200 c-19 -18 -22 -32 -22 -94 0 -94 11 -106 101 -106 110 0
117 30 9 40 l-55 5 -5 68 -5 67 67 0 c75 0 98 6 98 26 0 11 -19 14 -83 14 -70
0 -87 -3 -105 -20z"/>
<path d="M1883 1183 c-7 -2 -13 -11 -13 -20 0 -20 34 -12 38 10 3 17 -3 20
-25 10z"/>
<path d="M2390 1090 c0 -82 2 -91 18 -88 15 3 17 15 17 88 0 73 -2 85 -17 88
-16 3 -18 -6 -18 -88z"/>
<path d="M2620 1090 c0 -89 3 -96 34 -84 19 7 22 53 4 56 -7 1 18 4 57 7 56 5
70 10 73 24 3 15 -5 17 -57 17 -61 0 -61 0 -61 29 0 26 -14 41 -41 41 -5 0 -9
-40 -9 -90z"/>
<path d="M2860 1090 c0 -89 3 -96 34 -84 19 7 21 50 4 57 -7 3 17 6 55 6 60 1
67 3 67 21 0 18 -7 20 -55 20 -54 0 -55 1 -55 29 0 26 -14 41 -41 41 -5 0 -9
-40 -9 -90z"/>
<path d="M2257 1163 c-4 -3 -7 -34 -7 -68 0 -48 4 -66 19 -79 25 -23 94 -19
99 7 3 13 -3 17 -25 17 -41 0 -53 17 -53 77 0 38 -4 53 -13 53 -8 0 -17 -3
-20 -7z"/>
<path d="M3193 1123 c-7 -2 -13 -11 -13 -19 0 -10 14 -14 50 -14 49 0 50 -1
50 -30 0 -33 6 -36 33 -16 11 8 17 27 17 50 l0 36 -62 -1 c-35 0 -69 -3 -75
-6z"/>
<path d="M1947 1092 c-10 -10 -17 -35 -17 -56 0 -30 3 -37 18 -34 11 2 18 14
20 36 3 31 5 32 47 32 53 0 75 8 75 26 0 23 -122 19 -143 -4z"/>
<path d="M1874 1047 c-4 -10 -19 -13 -54 -9 -61 6 -100 -4 -100 -24 0 -12 15
-14 93 -12 l92 3 3 28 c2 19 -1 27 -13 27 -8 0 -18 -6 -21 -13z"/>
<path d="M2177 1034 c-18 -19 -5 -34 29 -34 28 0 35 3 32 18 -3 17 -48 29 -61
16z"/>
</g>
</svg>
